<svg width="25" height="24" viewBox="0 0 25 24" fill="none" xmlns="http://www.w3.org/2000/svg">
<mask id="mask0_359_5517" style="mask-type:alpha" maskUnits="userSpaceOnUse" x="0" y="0" width="25" height="24">
<rect x="24.668" width="24" height="24" transform="rotate(90 24.668 0)" fill="#D9D9D9"/>
</mask>
<g mask="url(#mask0_359_5517)">
<path d="M6.8344 9.17949C6.93427 9.0718 7.05343 9.01795 7.19191 9.01795C7.33082 9.01795 7.45022 9.0718 7.55008 9.17949L12.6763 14.7077L17.8191 9.16154C17.919 9.05385 18.0355 9 18.1687 9C18.3018 9 18.4183 9.05983 18.5182 9.17949C18.618 9.28718 18.668 9.41593 18.668 9.56574C18.668 9.71508 18.618 9.84359 18.5182 9.95128L13.0591 15.8385C12.9925 15.8983 12.9288 15.9402 12.868 15.9641C12.8068 15.988 12.7429 16 12.6763 16C12.6097 16 12.546 15.988 12.4852 15.9641C12.424 15.9402 12.3601 15.8983 12.2935 15.8385L6.81776 9.93333C6.7179 9.82564 6.66797 9.70311 6.66797 9.56574C6.66797 9.4279 6.72345 9.29915 6.8344 9.17949Z" fill="#333333"/>
</g>
</svg>
