<svg width="25" height="24" viewBox="0 0 25 24" fill="none" xmlns="http://www.w3.org/2000/svg">
<mask id="mask0_170_407" style="mask-type:alpha" maskUnits="userSpaceOnUse" x="0" y="0" width="25" height="24">
<rect x="0.620117" width="24" height="24" fill="#D9D9D9"/>
</mask>
<g mask="url(#mask0_170_407)">
<path d="M7.62051 13.85C8.13717 13.85 8.57451 13.6707 8.93251 13.312C9.29117 12.954 9.47051 12.5167 9.47051 12C9.47051 11.4834 9.29117 11.046 8.93251 10.688C8.57451 10.3294 8.13717 10.15 7.62051 10.15C7.10384 10.15 6.66651 10.3294 6.30851 10.688C5.94984 11.046 5.77051 11.4834 5.77051 12C5.77051 12.5167 5.94984 12.954 6.30851 13.312C6.66651 13.6707 7.10384 13.85 7.62051 13.85ZM7.62051 16.725C6.28717 16.725 5.16651 16.271 4.25851 15.363C3.34984 14.4544 2.89551 13.3334 2.89551 12C2.89551 10.6667 3.34984 9.54569 4.25851 8.63702C5.16651 7.72902 6.28717 7.27502 7.62051 7.27502C8.75384 7.27502 9.73317 7.59169 10.5585 8.22502C11.3832 8.85836 11.9122 9.61669 12.1455 10.5H20.8455C20.9622 10.5 21.0705 10.5167 21.1705 10.55C21.2705 10.5834 21.3622 10.6417 21.4455 10.725L22.1205 11.425C22.2038 11.5084 22.2665 11.596 22.3085 11.688C22.3498 11.7794 22.3705 11.8834 22.3705 12C22.3705 12.1 22.3538 12.1957 22.3205 12.287C22.2872 12.379 22.2205 12.4667 22.1205 12.55L20.6205 14.1C20.5372 14.1834 20.4498 14.2417 20.3585 14.275C20.2665 14.3084 20.1705 14.3334 20.0705 14.35C19.9872 14.3667 19.8955 14.354 19.7955 14.312C19.6955 14.2707 19.6038 14.225 19.5205 14.175L18.4205 13.25L17.0455 14.3C16.9788 14.3667 16.9038 14.4127 16.8205 14.438C16.7372 14.4627 16.6538 14.475 16.5705 14.475C16.4705 14.475 16.3832 14.4627 16.3085 14.438C16.2332 14.4127 16.1538 14.375 16.0705 14.325L14.9955 13.5H12.1455C11.9122 14.4 11.3788 15.1627 10.5455 15.788C9.71217 16.4127 8.73717 16.725 7.62051 16.725Z" fill="white"/>
</g>
</svg>
