<svg width="25" height="24" viewBox="0 0 25 24" fill="none" xmlns="http://www.w3.org/2000/svg">
<mask id="mask0_170_405" style="mask-type:alpha" maskUnits="userSpaceOnUse" x="0" y="0" width="25" height="24">
<rect x="0.620117" width="24" height="24" fill="#D9D9D9"/>
</mask>
<g mask="url(#mask0_170_405)">
<path d="M7.12012 16.5H13.1201V15.5H7.12012V16.5ZM17.1201 16.5H18.1201V7.5H17.1201V16.5ZM7.12012 12.5H13.1201V11.5H7.12012V12.5ZM7.12012 8.5H13.1201V7.5H7.12012V8.5ZM5.24512 20C4.77845 20 4.39112 19.846 4.08312 19.538C3.77445 19.2293 3.62012 18.8417 3.62012 18.375V5.625C3.62012 5.15833 3.77445 4.771 4.08312 4.463C4.39112 4.15433 4.77845 4 5.24512 4H19.9951C20.4618 4 20.8495 4.15433 21.1581 4.463C21.4661 4.771 21.6201 5.15833 21.6201 5.625V18.375C21.6201 18.8417 21.4661 19.2293 21.1581 19.538C20.8495 19.846 20.4618 20 19.9951 20H5.24512Z" fill="white"/>
</g>
</svg>
