<svg width="25" height="24" viewBox="0 0 25 24" fill="none" xmlns="http://www.w3.org/2000/svg">
<mask id="mask0_170_404" style="mask-type:alpha" maskUnits="userSpaceOnUse" x="0" y="0" width="25" height="24">
<rect x="0.620117" width="24" height="24" fill="#D9D9D9"/>
</mask>
<g mask="url(#mask0_170_404)">
<path d="M12.4199 20.7C12.1699 20.7 11.9533 20.6207 11.7699 20.462C11.5866 20.304 11.4949 20.0833 11.4949 19.8C11.4949 19.6833 11.5243 19.5457 11.5829 19.387C11.6409 19.229 11.7199 19.0917 11.8199 18.975L15.5199 15.3L14.9699 14.75L11.2699 18.425C11.1699 18.5417 11.0493 18.625 10.9079 18.675C10.7659 18.725 10.6199 18.75 10.4699 18.75C10.2033 18.75 9.98259 18.6627 9.80792 18.488C9.63259 18.3127 9.54492 18.0917 9.54492 17.825C9.54492 17.675 9.57392 17.5293 9.63192 17.388C9.69059 17.246 9.76992 17.125 9.86992 17.025L13.5699 13.35L13.0199 12.8L9.31992 16.475C9.21992 16.575 9.09926 16.654 8.95792 16.712C8.81592 16.7707 8.66992 16.8 8.51992 16.8C8.25326 16.8 8.03259 16.7127 7.85792 16.538C7.68259 16.3627 7.59492 16.1417 7.59492 15.875C7.59492 15.7417 7.61992 15.604 7.66992 15.462C7.71992 15.3207 7.80326 15.1917 7.91992 15.075L11.3699 11.625L10.8199 11.075L7.36992 14.525C7.28659 14.625 7.16992 14.704 7.01992 14.762C6.86992 14.8207 6.71159 14.85 6.54492 14.85C6.27826 14.85 6.06159 14.7667 5.89492 14.6C5.72826 14.4333 5.64492 14.2083 5.64492 13.925C5.64492 13.7917 5.66992 13.65 5.71992 13.5C5.76992 13.35 5.85326 13.225 5.96992 13.125L10.9199 8.17501L13.0699 10.325C13.2533 10.5083 13.4616 10.6417 13.6949 10.725C13.9283 10.8083 14.1616 10.85 14.3949 10.85C14.8783 10.85 15.2783 10.6917 15.5949 10.375C15.9116 10.0583 16.0699 9.65001 16.0699 9.15001C16.0699 8.91667 16.0283 8.67934 15.9449 8.43801C15.8616 8.19601 15.7199 7.98334 15.5199 7.80001L12.8699 5.15001L13.8699 4.17501C14.0866 3.95834 14.3493 3.78734 14.6579 3.66201C14.9659 3.53734 15.2783 3.47501 15.5949 3.47501C15.9283 3.47501 16.2493 3.53734 16.5579 3.66201C16.8659 3.78734 17.1366 3.95834 17.3699 4.17501L21.6449 8.47501C21.8616 8.67501 22.0283 8.92901 22.1449 9.23701C22.2616 9.54567 22.3199 9.88334 22.3199 10.25C22.3199 10.5833 22.2616 10.896 22.1449 11.188C22.0283 11.4793 21.8616 11.7333 21.6449 11.95L13.2199 20.375C13.1199 20.475 12.9949 20.554 12.8449 20.612C12.6949 20.6707 12.5533 20.7 12.4199 20.7ZM4.81992 13.175L3.79492 12.15C3.51159 11.8667 3.29492 11.529 3.14492 11.137C2.99492 10.7457 2.91992 10.3583 2.91992 9.97501C2.91992 9.59167 2.98659 9.23734 3.11992 8.91201C3.25326 8.58734 3.41992 8.32501 3.61992 8.12501L7.54492 4.17501C7.76159 3.95834 8.00326 3.78734 8.26992 3.66201C8.53659 3.53734 8.81992 3.47501 9.11992 3.47501C9.45326 3.47501 9.76159 3.53334 10.0449 3.65001C10.3283 3.76667 10.5866 3.94167 10.8199 4.17501L14.9699 8.35001C15.0699 8.45001 15.1533 8.57501 15.2199 8.72501C15.2866 8.87501 15.3199 9.01667 15.3199 9.15001C15.3199 9.41667 15.2326 9.63734 15.0579 9.81201C14.8826 9.98734 14.6616 10.075 14.3949 10.075C14.2449 10.075 14.0993 10.05 13.9579 10C13.8159 9.95001 13.6866 9.86667 13.5699 9.75001L10.8949 7.07501L4.81992 13.175Z" fill="white"/>
</g>
</svg>
