<svg width="25" height="24" viewBox="0 0 25 24" fill="none" xmlns="http://www.w3.org/2000/svg">
<mask id="mask0_170_406" style="mask-type:alpha" maskUnits="userSpaceOnUse" x="0" y="0" width="25" height="24">
<rect x="0.620117" width="24" height="24" fill="#D9D9D9"/>
</mask>
<g mask="url(#mask0_170_406)">
<path d="M4.02022 18.625C3.78688 18.625 3.59521 18.5457 3.44521 18.387C3.29521 18.229 3.22021 18.0333 3.22021 17.8V16.975C3.22021 16.5083 3.34121 16.1083 3.58321 15.775C3.82455 15.4417 4.14521 15.175 4.54521 14.975C5.41188 14.5583 6.27455 14.2293 7.13321 13.988C7.99121 13.746 9.02022 13.625 10.2202 13.625C11.4202 13.625 12.4495 13.746 13.3082 13.988C14.1662 14.2293 15.0285 14.5583 15.8952 14.975C16.2952 15.175 16.6162 15.4417 16.8582 15.775C17.0995 16.1083 17.2202 16.5083 17.2202 16.975V17.8C17.2202 18.0333 17.1412 18.229 16.9832 18.387C16.8245 18.5457 16.6369 18.625 16.4202 18.625H4.02022ZM18.9202 18.625C19.0035 18.525 19.0745 18.4043 19.1332 18.263C19.1912 18.121 19.2202 17.9667 19.2202 17.8V16.925C19.2202 16.3417 19.1035 15.7917 18.8702 15.275C18.6369 14.7583 18.3035 14.3167 17.8702 13.95C18.3535 14.05 18.8245 14.1917 19.2832 14.375C19.7412 14.5583 20.1952 14.7583 20.6452 14.975C21.0785 15.1917 21.4162 15.4707 21.6582 15.812C21.8995 16.154 22.0202 16.525 22.0202 16.925V17.8C22.0202 18.0333 21.9452 18.229 21.7952 18.387C21.6452 18.5457 21.4535 18.625 21.2202 18.625H18.9202ZM10.2202 11.375C9.38688 11.375 8.67855 11.0833 8.09521 10.5C7.51188 9.91667 7.22021 9.20833 7.22021 8.375C7.22021 7.55833 7.51188 6.854 8.09521 6.262C8.67855 5.67067 9.38688 5.375 10.2202 5.375C11.0369 5.375 11.7412 5.67067 12.3332 6.262C12.9245 6.854 13.2202 7.55833 13.2202 8.375C13.2202 9.20833 12.9245 9.91667 12.3332 10.5C11.7412 11.0833 11.0369 11.375 10.2202 11.375ZM17.4952 8.375C17.4952 9.20833 17.1995 9.91667 16.6082 10.5C16.0162 11.0833 15.3119 11.375 14.4952 11.375C14.4452 11.375 14.3869 11.371 14.3202 11.363C14.2535 11.3543 14.2035 11.35 14.1702 11.35C14.5035 10.9333 14.7619 10.4707 14.9452 9.962C15.1285 9.454 15.2202 8.925 15.2202 8.375C15.2202 7.84167 15.1242 7.325 14.9322 6.825C14.7409 6.325 14.4869 5.85833 14.1702 5.425C14.2202 5.40833 14.2702 5.39567 14.3202 5.387C14.3702 5.379 14.4285 5.375 14.4952 5.375C15.3119 5.375 16.0162 5.67067 16.6082 6.262C17.1995 6.854 17.4952 7.55833 17.4952 8.375Z" fill="white"/>
</g>
</svg>
