<svg width="25" height="24" viewBox="0 0 25 24" fill="none" xmlns="http://www.w3.org/2000/svg">
<mask id="mask0_170_401" style="mask-type:alpha" maskUnits="userSpaceOnUse" x="0" y="0" width="25" height="24">
<rect x="0.620117" width="24" height="24" fill="#D9D9D9"/>
</mask>
<g mask="url(#mask0_170_401)">
<path d="M5.24512 19C4.77845 19 4.39112 18.846 4.08312 18.538C3.77445 18.2293 3.62012 17.8417 3.62012 17.375V6.625C3.62012 6.15833 3.77445 5.771 4.08312 5.463C4.39112 5.15433 4.77845 5 5.24512 5H19.9951C20.4618 5 20.8495 5.15433 21.1581 5.463C21.4661 5.771 21.6201 6.15833 21.6201 6.625V17.375C21.6201 17.8417 21.4661 18.2293 21.1581 18.538C20.8495 18.846 20.4618 19 19.9951 19H5.24512ZM4.62012 11.2H20.6201V8.8H4.62012V11.2Z" fill="white"/>
</g>
</svg>
