<svg width="25" height="24" viewBox="0 0 25 24" fill="none" xmlns="http://www.w3.org/2000/svg">
<mask id="mask0_170_400" style="mask-type:alpha" maskUnits="userSpaceOnUse" x="0" y="0" width="25" height="24">
<rect x="0.620117" width="24" height="24" fill="#D9D9D9"/>
</mask>
<g mask="url(#mask0_170_400)">
<path d="M3.62012 10.625C3.62012 10.175 3.77845 9.79166 4.09512 9.475C4.41178 9.15833 4.79512 9 5.24512 9H8.12012V7.2C8.12012 6.75 8.27845 6.36666 8.59512 6.05C8.91178 5.73333 9.29512 5.575 9.74512 5.575H15.4951C15.9451 5.575 16.3285 5.73333 16.6451 6.05C16.9618 6.36666 17.1201 6.75 17.1201 7.2V9H19.9951C20.4451 9 20.8285 9.15833 21.1451 9.475C21.4618 9.79166 21.6201 10.175 21.6201 10.625V13.725H18.1201V13C18.1201 12.85 18.0701 12.729 17.9701 12.637C17.8701 12.5457 17.7535 12.5 17.6201 12.5C17.4701 12.5 17.3495 12.5457 17.2581 12.637C17.1661 12.729 17.1201 12.85 17.1201 13V13.725H8.12012V13C8.12012 12.85 8.07012 12.729 7.97012 12.637C7.87012 12.5457 7.75345 12.5 7.62012 12.5C7.47012 12.5 7.34945 12.5457 7.25812 12.637C7.16612 12.729 7.12012 12.85 7.12012 13V13.725H3.62012V10.625ZM9.12012 9H16.1201V7.2C16.1201 7.01666 16.0618 6.86666 15.9451 6.75C15.8285 6.63333 15.6785 6.575 15.4951 6.575H9.74512C9.56178 6.575 9.41178 6.63333 9.29512 6.75C9.17845 6.86666 9.12012 7.01666 9.12012 7.2V9ZM5.24512 19C4.79512 19 4.41178 18.8417 4.09512 18.525C3.77845 18.2083 3.62012 17.825 3.62012 17.375V14.5H7.12012V15C7.12012 15.15 7.17012 15.271 7.27012 15.363C7.37012 15.4543 7.48678 15.5 7.62012 15.5C7.77012 15.5 7.89112 15.4543 7.98312 15.363C8.07445 15.271 8.12012 15.15 8.12012 15V14.5H17.1201V15C17.1201 15.15 17.1701 15.271 17.2701 15.363C17.3701 15.4543 17.4868 15.5 17.6201 15.5C17.7701 15.5 17.8911 15.4543 17.9831 15.363C18.0745 15.271 18.1201 15.15 18.1201 15V14.5H21.6201V17.375C21.6201 17.825 21.4618 18.2083 21.1451 18.525C20.8285 18.8417 20.4451 19 19.9951 19H5.24512Z" fill="white"/>
</g>
</svg>
