<svg width="25" height="24" viewBox="0 0 25 24" fill="none" xmlns="http://www.w3.org/2000/svg">
<mask id="mask0_170_402" style="mask-type:alpha" maskUnits="userSpaceOnUse" x="0" y="0" width="25" height="24">
<rect x="0.620117" width="24" height="24" fill="#D9D9D9"/>
</mask>
<g mask="url(#mask0_170_402)">
<path d="M12.6201 11.5C13.0368 11.5 13.3908 11.354 13.6821 11.062C13.9741 10.7707 14.1201 10.4167 14.1201 10C14.1201 9.58333 13.9741 9.22933 13.6821 8.938C13.3908 8.646 13.0368 8.5 12.6201 8.5C12.2035 8.5 11.8495 8.646 11.5581 8.938C11.2661 9.22933 11.1201 9.58333 11.1201 10C11.1201 10.4167 11.2661 10.7707 11.5581 11.062C11.8495 11.354 12.2035 11.5 12.6201 11.5ZM12.6201 21.3C12.5201 21.3 12.4201 21.2833 12.3201 21.25C12.2201 21.2167 12.1285 21.1667 12.0451 21.1C9.71178 18.9667 7.97445 16.9833 6.83312 15.15C5.69112 13.3167 5.12012 11.6667 5.12012 10.2C5.12012 7.85 5.87445 5.97933 7.38312 4.588C8.89112 3.196 10.6368 2.5 12.6201 2.5C14.6035 2.5 16.3495 3.196 17.8581 4.588C19.3661 5.97933 20.1201 7.85 20.1201 10.2C20.1201 11.6667 19.5495 13.3167 18.4081 15.15C17.2661 16.9833 15.5285 18.9667 13.1951 21.1C13.1285 21.1667 13.0408 21.2167 12.9321 21.25C12.8241 21.2833 12.7201 21.3 12.6201 21.3Z" fill="white"/>
</g>
</svg>
