<svg width="25" height="24" viewBox="0 0 25 24" fill="none" xmlns="http://www.w3.org/2000/svg">
<mask id="mask0_170_403" style="mask-type:alpha" maskUnits="userSpaceOnUse" x="0" y="0" width="25" height="24">
<rect x="0.620117" width="24" height="24" fill="#D9D9D9"/>
</mask>
<g mask="url(#mask0_170_403)">
<path d="M12.6201 21C11.3868 21 10.2201 20.7627 9.12012 20.288C8.02012 19.8127 7.06612 19.1707 6.25812 18.362C5.44945 17.554 4.80745 16.6 4.33212 15.5C3.85745 14.4 3.62012 13.2333 3.62012 12C3.62012 10.75 3.85745 9.579 4.33212 8.487C4.80745 7.39567 5.44945 6.44567 6.25812 5.637C7.06612 4.829 8.02012 4.18733 9.12012 3.712C10.2201 3.23733 11.3868 3 12.6201 3C13.8701 3 15.0411 3.23733 16.1331 3.712C17.2245 4.18733 18.1745 4.829 18.9831 5.637C19.7911 6.44567 20.4328 7.39567 20.9081 8.487C21.3828 9.579 21.6201 10.75 21.6201 12C21.6201 13.2333 21.3828 14.4 20.9081 15.5C20.4328 16.6 19.7911 17.554 18.9831 18.362C18.1745 19.1707 17.2245 19.8127 16.1331 20.288C15.0411 20.7627 13.8701 21 12.6201 21ZM12.6201 20C13.2035 19.25 13.6868 18.5127 14.0701 17.788C14.4535 17.0627 14.7618 16.25 14.9951 15.35H10.2451C10.5118 16.3 10.8285 17.1373 11.1951 17.862C11.5618 18.5873 12.0368 19.3 12.6201 20ZM11.3451 19.85C10.8785 19.3 10.4535 18.6207 10.0701 17.812C9.68678 17.004 9.40345 16.1833 9.22012 15.35H5.37012C5.95345 16.5833 6.77012 17.6 7.82012 18.4C8.87012 19.2 10.0451 19.6833 11.3451 19.85ZM13.8951 19.85C15.1951 19.6833 16.3701 19.2 17.4201 18.4C18.4701 17.6 19.2868 16.5833 19.8701 15.35H16.0201C15.7701 16.2 15.4535 17.029 15.0701 17.837C14.6868 18.6457 14.2951 19.3167 13.8951 19.85ZM4.97012 14.35H8.99512C8.92845 13.9333 8.87845 13.5333 8.84512 13.15C8.81178 12.7667 8.79512 12.3833 8.79512 12C8.79512 11.6167 8.81178 11.2333 8.84512 10.85C8.87845 10.4667 8.92845 10.0667 8.99512 9.65H4.97012C4.85345 10 4.76612 10.379 4.70812 10.787C4.64945 11.1957 4.62012 11.6 4.62012 12C4.62012 12.4 4.64945 12.804 4.70812 13.212C4.76612 13.6207 4.85345 14 4.97012 14.35ZM9.99512 14.35H15.2451C15.3118 13.9333 15.3618 13.5373 15.3951 13.162C15.4285 12.7873 15.4451 12.4 15.4451 12C15.4451 11.6 15.4285 11.2123 15.3951 10.837C15.3618 10.4623 15.3118 10.0667 15.2451 9.65H9.99512C9.92845 10.0667 9.87845 10.4623 9.84512 10.837C9.81178 11.2123 9.79512 11.6 9.79512 12C9.79512 12.4 9.81178 12.7873 9.84512 13.162C9.87845 13.5373 9.92845 13.9333 9.99512 14.35ZM16.2451 14.35H20.2701C20.3868 14 20.4745 13.6207 20.5331 13.212C20.5911 12.804 20.6201 12.4 20.6201 12C20.6201 11.6 20.5911 11.1957 20.5331 10.787C20.4745 10.379 20.3868 10 20.2701 9.65H16.2451C16.3118 10.0667 16.3618 10.4667 16.3951 10.85C16.4285 11.2333 16.4451 11.6167 16.4451 12C16.4451 12.3833 16.4285 12.7667 16.3951 13.15C16.3618 13.5333 16.3118 13.9333 16.2451 14.35ZM16.0201 8.65H19.8701C19.2868 7.38333 18.4825 6.36667 17.4571 5.6C16.4325 4.83333 15.2451 4.34167 13.8951 4.125C14.3618 4.74167 14.7828 5.446 15.1581 6.238C15.5328 7.02933 15.8201 7.83333 16.0201 8.65ZM10.2451 8.65H14.9951C14.7285 7.71667 14.4035 6.87067 14.0201 6.112C13.6368 5.354 13.1701 4.65 12.6201 4C12.0701 4.65 11.6035 5.354 11.2201 6.112C10.8368 6.87067 10.5118 7.71667 10.2451 8.65ZM5.37012 8.65H9.22012C9.42012 7.83333 9.70778 7.02933 10.0831 6.238C10.4578 5.446 10.8785 4.74167 11.3451 4.125C9.97845 4.34167 8.78678 4.83733 7.77012 5.612C6.75345 6.38733 5.95345 7.4 5.37012 8.65Z" fill="white"/>
</g>
</svg>
