<svg width="73" height="72" viewBox="0 0 73 72" fill="none" xmlns="http://www.w3.org/2000/svg">
<circle cx="36.4987" cy="38.6196" r="27.7604" stroke="#292C35" stroke-width="2"/>
<path d="M62.0215 38.1666H68.5003" stroke="#292C35" stroke-width="2" stroke-miterlimit="10" stroke-linecap="round"/>
<path d="M36.501 70.0797L36.501 63.601" stroke="#292C35" stroke-width="2" stroke-miterlimit="10" stroke-linecap="round"/>
<path d="M4.5 38.1666H10.9788" stroke="#292C35" stroke-width="2" stroke-miterlimit="10" stroke-linecap="round"/>
<path d="M36.5001 14.1801L28.6392 17.6355L32.6128 9.77454L36.5001 2L40.4737 9.77454L44.361 17.6355L36.5001 14.1801Z" fill="#EC342E" stroke="#EC342E" stroke-width="2" stroke-linecap="round" stroke-linejoin="round"/>
<path d="M36.501 1.99997V14.1801" stroke="#EC342E" stroke-width="2" stroke-linecap="round" stroke-linejoin="round"/>
<path d="M26.7817 33.9115H29.8916C31.9648 33.9115 33.6061 34.6026 33.6061 36.8486C33.6061 39.0946 31.9648 39.9584 29.9779 39.9584H28.6822V43.3274H26.7817V33.9115ZM29.8052 38.4899C31.1009 38.4899 31.7056 37.9716 31.7056 36.8486C31.7056 35.7256 31.0145 35.3801 29.7188 35.3801H28.6822V38.4899H29.8052Z" fill="#292C35"/>
<path d="M34.3838 38.5766C34.3838 35.5531 36.1115 33.7391 38.6166 33.7391C41.1217 33.7391 42.8494 35.5531 42.8494 38.5766C42.8494 41.6 41.1217 43.5004 38.6166 43.5004C36.1115 43.5004 34.3838 41.6 34.3838 38.5766ZM40.8626 38.5766C40.8626 36.5897 39.9987 35.3804 38.6166 35.3804C37.2345 35.3804 36.3706 36.5897 36.3706 38.5766C36.3706 40.5634 37.2345 41.8591 38.6166 41.8591C39.9987 41.8591 40.8626 40.5634 40.8626 38.5766Z" fill="#292C35"/>
<path d="M44.3164 33.9117H46.2168V43.3275H44.3164V33.9117Z" fill="#292C35"/>
</svg>
