<svg width="73" height="72" viewBox="0 0 73 72" fill="none" xmlns="http://www.w3.org/2000/svg">

    <path
        d="M61.4079 27.1252C61.4079 26.2965 61.4079 25.4678 61.3158 24.6391C60.0267 12.4844 49.3453 3 36.454 3C23.5626 3 12.8812 12.4844 11.5921 24.6391C11.5921 25.4678 11.5 26.2965 11.5 27.1252C11.5 31.5451 12.7891 35.6888 14.907 39.1878L15.0912 39.5562L35.349 67.4567C35.9936 68.4696 37.0065 68.5617 37.651 67.4567L58.093 39.1878L58.2772 38.9116C60.395 35.3204 61.5 31.5451 61.5 27.1252H61.4079Z"
        stroke="#292C35" stroke-width="2" stroke-miterlimit="10" />
    <path d="M43.2655 9.53789H29.5454V14.1419H43.2655V9.53789Z" fill="#E7290F" />
    <path
        d="M21.5354 23.35H51.6459C53.1192 23.35 54.2241 24.547 54.2241 25.9282V35.6888C54.2241 36.3334 53.6716 36.7938 53.1192 36.7938H19.97C19.3254 36.7938 18.7729 36.2413 18.7729 35.5967V26.0203C18.7729 24.4549 19.97 23.2579 21.5354 23.2579V23.35Z"
        stroke="#292C35" stroke-width="2" stroke-miterlimit="10" />
    <path d="M18.5889 33.0185H54.0401" stroke="#292C35" stroke-width="2" stroke-miterlimit="10" />
    <path d="M29.4541 29.0592H43.2663" stroke="#292C35" stroke-width="2" stroke-miterlimit="10" />
    <path
        d="M48.422 23.3501H24.481L25.5859 15.6153C25.678 14.8786 26.3226 14.2341 27.1513 14.2341H45.6596C46.3962 14.2341 47.0408 14.7866 47.225 15.5232L48.422 23.258V23.3501Z"
        stroke="#292C35" stroke-width="2" stroke-miterlimit="10" />
    <path
        d="M21.4448 36.886H27.5222V39.9247C27.5222 41.0297 26.6014 41.9505 25.4964 41.9505H23.3785C22.2736 41.9505 21.4448 41.1217 21.4448 40.0168V36.886Z"
        stroke="#292C35" stroke-width="2" stroke-miterlimit="10" />
    <path
        d="M45.2002 36.886H51.2775V39.9247C51.2775 41.0297 50.3567 41.9505 49.2518 41.9505H47.1339C46.0289 41.9505 45.2002 41.1217 45.2002 40.0168V36.886Z"
        stroke="#292C35" stroke-width="2" stroke-miterlimit="10" />
    <path
        d="M23.5621 29.9799C24.6301 29.9799 25.4958 29.1141 25.4958 28.0462C25.4958 26.9782 24.6301 26.1125 23.5621 26.1125C22.4942 26.1125 21.6284 26.9782 21.6284 28.0462C21.6284 29.1141 22.4942 29.9799 23.5621 29.9799Z"
        fill="#E7290F" />
    <path
        d="M49.2516 29.9799C50.3195 29.9799 51.1853 29.1141 51.1853 28.0462C51.1853 26.9782 50.3195 26.1125 49.2516 26.1125C48.1836 26.1125 47.3179 26.9782 47.3179 28.0462C47.3179 29.1141 48.1836 29.9799 49.2516 29.9799Z"
        fill="#E7290F" />
    <path d="M36.4541 47.7515V58.0646" stroke="#292C35" stroke-width="2" stroke-miterlimit="10" />
</svg>