<svg width="73" height="72" viewBox="0 0 73 72" fill="none" xmlns="http://www.w3.org/2000/svg">
<path d="M61.6944 5H11.0647C7.99141 5 5.5 7.49141 5.5 10.5647V61.1944C5.5 64.2677 7.99141 66.7592 11.0647 66.7592H61.6944C64.7677 66.7592 67.2592 64.2677 67.2592 61.1944V10.5647C67.2592 7.49141 64.7677 5 61.6944 5Z" stroke="#292C35" stroke-width="2" stroke-miterlimit="10"/>
<path d="M16.3555 15.3994L33.9618 33.4619" stroke="#292C35" stroke-width="2" stroke-miterlimit="10" stroke-linecap="round"/>
<path d="M36.4266 54.6261C25.9358 54.6261 17.4519 46.1422 17.4519 35.6514C17.4519 25.1605 19.5501 25.7079 23.0166 22.2413L18.729 17.8625C14.1678 22.4238 11.3398 28.7183 11.3398 35.6514C11.3398 49.5175 22.5605 60.6469 36.3354 60.6469C50.1104 60.6469 61.2398 49.6088 61.331 35.8338H55.2189C55.0365 46.1422 46.6438 54.5349 36.2442 54.5349L36.4266 54.6261Z" stroke="#292C35" stroke-width="2" stroke-miterlimit="10"/>
<path d="M36.4238 42.5845C32.5924 42.5845 29.4907 39.4829 29.4907 35.6515C29.4907 31.82 30.2205 32.0937 31.4064 30.8165L27.3013 26.6202C25.0207 28.9008 23.6523 32.0937 23.6523 35.5602C23.6523 42.5845 29.3995 48.3317 36.4238 48.3317C43.4481 48.3317 49.0128 42.767 49.1953 35.8339H43.3569C43.1744 39.5741 40.164 42.4933 36.4238 42.4933V42.5845Z" stroke="#292C35" stroke-width="2" stroke-miterlimit="10"/>
<path d="M63.7928 34.1005H41.3516V36.8372H63.7928V34.1005Z" fill="#292C35"/>
<path d="M20.5518 43.0406L17.9062 44.2265L19.6395 47.693L21.7377 46.4159L20.5518 42.9493V43.0406Z" fill="#292C35"/>
<path d="M19.614 44.3718C20.066 44.1493 20.2522 43.6025 20.0297 43.1505C19.8073 42.6984 19.2605 42.5123 18.8084 42.7347C18.3564 42.9572 18.1702 43.504 18.3927 43.956C18.6151 44.4081 19.1619 44.5942 19.614 44.3718Z" fill="#292C35"/>
<path d="M23.1077 52.8017C24.9719 52.8017 26.4831 51.2905 26.4831 49.4263C26.4831 47.5622 24.9719 46.051 23.1077 46.051C21.2436 46.051 19.7324 47.5622 19.7324 49.4263C19.7324 51.2905 21.2436 52.8017 23.1077 52.8017Z" fill="#FAFAFA" stroke="#FAFAFA" stroke-width="2" stroke-miterlimit="10"/>
<path d="M23.1051 51.9807C24.5158 51.9807 25.6594 50.8371 25.6594 49.4264C25.6594 48.0157 24.5158 46.8721 23.1051 46.8721C21.6944 46.8721 20.5508 48.0157 20.5508 49.4264C20.5508 50.8371 21.6944 51.9807 23.1051 51.9807Z" stroke="#E5290F" stroke-width="2" stroke-miterlimit="10"/>
<path d="M36.7908 35.1038H35.9698C35.7179 35.1038 35.5137 35.308 35.5137 35.5599V36.3809C35.5137 36.6328 35.7179 36.837 35.9698 36.837H36.7908C37.0427 36.837 37.2469 36.6328 37.2469 36.3809V35.5599C37.2469 35.308 37.0427 35.1038 36.7908 35.1038Z" fill="#292C35"/>
<path d="M36.8826 39.3917H35.9704C35.7688 39.3917 35.6055 39.5551 35.6055 39.7566V40.6688C35.6055 40.8704 35.7688 41.0337 35.9704 41.0337H36.8826C37.0841 41.0337 37.2475 40.8704 37.2475 40.6688V39.7566C37.2475 39.5551 37.0841 39.3917 36.8826 39.3917Z" fill="#292C35"/>
<path d="M36.8826 63.1102H35.9704C35.7688 63.1102 35.6055 63.2736 35.6055 63.4751V64.3874C35.6055 64.5889 35.7688 64.7523 35.9704 64.7523H36.8826C37.0841 64.7523 37.2475 64.5889 37.2475 64.3874V63.4751C37.2475 63.2736 37.0841 63.1102 36.8826 63.1102Z" fill="#292C35"/>
<path d="M36.8826 57.0893H35.9704C35.7688 57.0893 35.6055 57.2526 35.6055 57.4542V58.3664C35.6055 58.5679 35.7688 58.7313 35.9704 58.7313H36.8826C37.0841 58.7313 37.2475 58.5679 37.2475 58.3664V57.4542C37.2475 57.2526 37.0841 57.0893 36.8826 57.0893Z" fill="#292C35"/>
<path d="M36.8826 44.9564H35.9704C35.7688 44.9564 35.6055 45.1198 35.6055 45.3213V46.2335C35.6055 46.4351 35.7688 46.5984 35.9704 46.5984H36.8826C37.0841 46.5984 37.2475 46.4351 37.2475 46.2335V45.3213C37.2475 45.1198 37.0841 44.9564 36.8826 44.9564Z" fill="#292C35"/>
<path d="M36.8826 50.9771H35.9704C35.7688 50.9771 35.6055 51.1405 35.6055 51.342V52.2543C35.6055 52.4558 35.7688 52.6192 35.9704 52.6192H36.8826C37.0841 52.6192 37.2475 52.4558 37.2475 52.2543V51.342C37.2475 51.1405 37.0841 50.9771 36.8826 50.9771Z" fill="#292C35"/>
<path d="M36.8826 7.18918H35.9704C35.7688 7.18918 35.6055 7.35256 35.6055 7.55409V8.46633C35.6055 8.66786 35.7688 8.83123 35.9704 8.83123H36.8826C37.0841 8.83123 37.2475 8.66786 37.2475 8.46633V7.55409C37.2475 7.35256 37.0841 7.18918 36.8826 7.18918Z" fill="#292C35"/>
<path d="M36.8826 13.2099H35.9704C35.7688 13.2099 35.6055 13.3732 35.6055 13.5748V14.487C35.6055 14.6886 35.7688 14.8519 35.9704 14.8519H36.8826C37.0841 14.8519 37.2475 14.6886 37.2475 14.487V13.5748C37.2475 13.3732 37.0841 13.2099 36.8826 13.2099Z" fill="#292C35"/>
<path d="M36.8826 25.343H35.9704C35.7688 25.343 35.6055 25.5063 35.6055 25.7079V26.6201C35.6055 26.8216 35.7688 26.985 35.9704 26.985H36.8826C37.0841 26.985 37.2475 26.8216 37.2475 26.6201V25.7079C37.2475 25.5063 37.0841 25.343 36.8826 25.343Z" fill="#292C35"/>
<path d="M36.8826 30.999H35.9704C35.7688 30.999 35.6055 31.1623 35.6055 31.3639V32.2761C35.6055 32.4776 35.7688 32.641 35.9704 32.641H36.8826C37.0841 32.641 37.2475 32.4776 37.2475 32.2761V31.3639C37.2475 31.1623 37.0841 30.999 36.8826 30.999Z" fill="#292C35"/>
<path d="M36.8826 19.3221H35.9704C35.7688 19.3221 35.6055 19.4855 35.6055 19.687V20.5993C35.6055 20.8008 35.7688 20.9642 35.9704 20.9642H36.8826C37.0841 20.9642 37.2475 20.8008 37.2475 20.5993V19.687C37.2475 19.4855 37.0841 19.3221 36.8826 19.3221Z" fill="#292C35"/>
<path d="M47.0078 36.3811V35.4689C47.0078 35.2674 46.8444 35.104 46.6429 35.104H45.7307C45.5291 35.104 45.3658 35.2674 45.3658 35.4689V36.3811C45.3658 36.5827 45.5291 36.746 45.7307 36.746H46.6429C46.8444 36.746 47.0078 36.5827 47.0078 36.3811Z" fill="#292C35"/>
<path d="M41.3516 36.29V35.3777C41.3516 35.1762 41.1882 35.0128 40.9867 35.0128H40.0744C39.8729 35.0128 39.7095 35.1762 39.7095 35.3777V36.29C39.7095 36.4915 39.8729 36.6549 40.0744 36.6549H40.9867C41.1882 36.6549 41.3516 36.4915 41.3516 36.29Z" fill="#292C35"/>
<path d="M53.0273 36.3812V35.4689C53.0273 35.2674 52.864 35.104 52.6625 35.104H51.7502C51.5487 35.104 51.3853 35.2674 51.3853 35.4689V36.3812C51.3853 36.5827 51.5487 36.746 51.7502 36.746H52.6625C52.864 36.746 53.0273 36.5827 53.0273 36.3812Z" fill="#292C35"/>
<path d="M15.1699 36.3811V35.4689C15.1699 35.2674 15.0066 35.104 14.805 35.104H13.8928C13.6913 35.104 13.5279 35.2674 13.5279 35.4689V36.3811C13.5279 36.5827 13.6913 36.746 13.8928 36.746H14.805C15.0066 36.746 15.1699 36.5827 15.1699 36.3811Z" fill="#292C35"/>
<path d="M27.3008 36.3812V35.4689C27.3008 35.2674 27.1374 35.104 26.9359 35.104H26.0236C25.8221 35.104 25.6587 35.2674 25.6587 35.4689V36.3812C25.6587 36.5827 25.8221 36.7461 26.0236 36.7461H26.9359C27.1374 36.7461 27.3008 36.5827 27.3008 36.3812Z" fill="#292C35"/>
<path d="M32.8691 36.29V35.3777C32.8691 35.1762 32.7058 35.0128 32.5042 35.0128H31.592C31.3905 35.0128 31.2271 35.1762 31.2271 35.3777V36.29C31.2271 36.4915 31.3905 36.6549 31.592 36.6549H32.5042C32.7058 36.6549 32.8691 36.4915 32.8691 36.29Z" fill="#292C35"/>
<path d="M21.2812 36.3811V35.4689C21.2812 35.2674 21.1179 35.104 20.9164 35.104H20.0041C19.8026 35.104 19.6392 35.2674 19.6392 35.4689V36.3811C19.6392 36.5827 19.8026 36.746 20.0041 36.746H20.9164C21.1179 36.746 21.2812 36.5827 21.2812 36.3811Z" fill="#292C35"/>
</svg>
