<svg width="73" height="72" viewBox="0 0 73 72" fill="none" xmlns="http://www.w3.org/2000/svg">
<path d="M18.4422 58.3426L6.5 58.4273L15.8166 50.8046L25.1333 43.2666L25.8109 55.0395L26.5731 66.897L18.4422 58.3426Z" stroke="#292C35" stroke-width="2" stroke-linecap="round" stroke-linejoin="round"/>
<path d="M25.1344 43.2665L18.4434 58.3426" stroke="#292C35" stroke-width="2" stroke-linecap="round" stroke-linejoin="round"/>
<path d="M25.6401 40.2176C25.8095 37.2532 25.7248 34.9664 25.6401 33.3571C25.5554 31.3244 25.386 30.1386 25.6401 28.1059C25.8941 25.9885 25.9788 24.718 26.9105 23.4476C28.9432 20.5679 33.0087 20.6526 33.3475 20.6526C36.3966 20.6526 39.3609 22.4312 40.6314 24.9721C41.309 26.2426 41.309 27.3436 41.3937 29.7999C41.3937 34.4582 41.3937 36.8297 41.3937 40.7258C41.2243 50.0424 41.7324 47.6709 41.3937 52.0751C41.2243 54.3619 41.0549 55.463 41.6478 57.0722C41.7324 57.411 43.4264 61.3918 47.5765 62.2387C51.3879 63.001 54.7758 60.6295 56.2156 58.1733C56.9779 56.8181 57.1473 55.463 57.4014 52.8374C57.7401 48.8566 57.4014 44.7912 57.4014 44.7912C57.4014 44.4524 57.4014 44.3677 57.4014 43.6054" stroke="#292C35" stroke-width="2" stroke-linecap="round" stroke-linejoin="round"/>
<path d="M54.0996 41.149L60.1978 38.0999" stroke="#E5290F" stroke-width="2" stroke-miterlimit="10" stroke-linecap="round"/>
<path d="M54.0996 38.0154L60.1131 41.2339" stroke="#E5290F" stroke-width="2" stroke-miterlimit="10" stroke-linecap="round"/>
<path d="M56.8939 23.9557C61.8522 23.9557 65.8717 19.9362 65.8717 14.9779C65.8717 10.0195 61.8522 6 56.8939 6C51.9355 6 47.916 10.0195 47.916 14.9779C47.916 19.9362 51.9355 23.9557 56.8939 23.9557Z" stroke="#292C35" stroke-width="2" stroke-miterlimit="10"/>
<path d="M56.8926 36.4061V23.9557" stroke="#292C35" stroke-width="2" stroke-miterlimit="10" stroke-linecap="round"/>
<path d="M56.3008 9.98085C56.6396 9.98085 58.5029 9.81145 60.1121 11.2513C61.8061 12.7758 61.7214 14.8933 61.7214 15.232" stroke="#292C35" stroke-width="2" stroke-miterlimit="10" stroke-linecap="round"/>
</svg>
