<svg width="73" height="72" viewBox="0 0 73 72" fill="none" xmlns="http://www.w3.org/2000/svg">
<g clip-path="url(#clip0_18_816)">
<path d="M7.60478 48.5025C5.20257 46.4695 5.40561 42.7048 8.01256 40.9419L35.2032 22.5551C36.8669 21.4301 39.0582 21.473 40.6766 22.6622L65.0062 40.5393C67.5814 42.4315 67.591 46.2755 65.0254 48.1807L37.2624 68.7964C35.4908 70.1119 33.0465 70.0341 31.3621 68.6086L7.60478 48.5025Z" fill="white" stroke="#292C35" stroke-width="2.5"/>
<path d="M7.5092 39.434C5.12404 37.3956 5.33535 33.6458 7.93441 31.8882L35.1578 13.4793C36.8215 12.3543 39.0128 12.3972 40.6312 13.5864L65.0432 31.524C67.5989 33.402 67.6316 37.2092 65.1084 39.1308L37.5122 60.1464C35.7327 61.5015 33.2488 61.4316 31.5484 59.9784L7.5092 39.434Z" fill="white" stroke="#292C35" stroke-width="2.5"/>
<path d="M7.52622 31.8239C5.13527 29.7874 5.34378 26.0324 7.94551 24.2731L35.1578 5.87167C36.8215 4.74669 39.0128 4.78955 40.6312 5.97872L65.0537 23.9241C67.607 25.8002 67.6426 29.6028 65.1248 31.5263L37.6228 52.5383C35.8454 53.8962 33.3616 53.8302 31.6589 52.3799L7.52622 31.8239Z" fill="white" stroke="#292C35" stroke-width="2.5"/>
<g clip-path="url(#clip1_18_816)">
<path d="M29.1847 31.937L30.5873 30.7012C29.4693 29.4715 27.6779 29.5101 26.1146 30.8875C24.5707 32.2479 24.1918 34.0956 25.3252 35.3722C26.2349 36.4047 27.489 36.3552 28.9348 35.6004L29.8673 35.1075C30.8042 34.6194 31.4399 34.4572 31.8647 34.9394C32.3281 35.4653 32.1489 36.2635 31.3794 36.9415C30.6002 37.628 29.7177 37.7654 29.0425 37.0972L27.6204 38.3502C28.9988 39.8263 30.78 39.6584 32.4803 38.1515C34.2037 36.6417 34.4775 34.9298 33.3452 33.6349C32.3062 32.4654 30.8645 32.6456 29.4121 33.4323L28.6417 33.8343C27.9128 34.2343 27.1851 34.4688 26.7394 33.9532C26.3323 33.4813 26.4459 32.7757 27.1862 32.1234C27.9021 31.4926 28.6328 31.4284 29.1847 31.937Z" fill="#EC342E"/>
<path d="M39.0648 32.5802C41.2174 30.6836 41.3463 28.2083 39.3975 26.0064C37.467 23.8056 35.0038 23.6315 32.8804 25.5024L30.3674 27.7167L36.5809 34.7687L39.0648 32.5802ZM36.9349 32.2248L32.9356 27.6859L33.9096 26.8276C35.2441 25.6519 36.5547 25.7255 37.9364 27.2937C39.331 28.8765 39.2434 30.1909 37.8992 31.3753L36.9349 32.2248Z" fill="#EC342E"/>
<path d="M43.3235 28.6274L44.7846 27.34L43.008 25.3237L42.9587 23.7754L47.4827 24.9627L49.236 23.4179L43.144 21.8647L42.9932 16.3916L41.2302 17.945L41.4233 23.3288L41.326 23.4146L38.5711 20.2879L37.11 21.5753L43.3235 28.6274Z" fill="#EC342E"/>
</g>
</g>
<defs>
<clipPath id="clip0_18_816">
<rect width="72" height="72" fill="white" transform="translate(0.5)"/>
</clipPath>
<clipPath id="clip1_18_816">
<rect width="25.6258" height="22.4226" fill="white" transform="translate(22.9707 17.4116) rotate(-3.93642)"/>
</clipPath>
</defs>
</svg>
