<svg width="73" height="72" viewBox="0 0 73 72" fill="none" xmlns="http://www.w3.org/2000/svg">
<path d="M7.5 40.1486H62.0439" stroke="#292C35" stroke-width="2" stroke-miterlimit="10"/>
<path d="M34.7715 67.3358V12.8766" stroke="#292C35" stroke-width="2" stroke-miterlimit="10"/>
<path d="M48.069 40.1485C48.069 54.8008 34.7718 66.7429 34.7718 66.7429C34.7718 66.7429 21.4746 54.8855 21.4746 40.1485C21.4746 25.4115 34.7718 13.5541 34.7718 13.5541C34.7718 13.5541 48.069 25.4115 48.069 40.1485Z" stroke="#292C35" stroke-width="2" stroke-miterlimit="10"/>
<path d="M54.168 21.8543C49.171 25.6656 42.3107 29.4769 34.8575 29.4769C27.4043 29.4769 20.5439 25.7503 15.5469 21.8543C20.6286 16.5185 27.4043 13.2153 34.8575 13.2153C42.3107 13.2153 49.0863 16.5185 54.168 21.8543Z" stroke="#292C35" stroke-width="2" stroke-miterlimit="10"/>
<path d="M54.168 58.4429C49.171 54.6316 42.3107 50.8203 34.8575 50.8203C27.4043 50.8203 20.5439 54.5469 15.5469 58.4429C20.6286 63.7787 27.4043 67.0819 34.8575 67.0819C42.3107 67.0819 49.0863 63.7787 54.168 58.4429Z" stroke="#292C35" stroke-width="2" stroke-miterlimit="10"/>
<path d="M34.7711 67.0817C49.6458 67.0817 61.7042 55.0233 61.7042 40.1485C61.7042 25.2737 49.6458 13.2153 34.7711 13.2153C19.8963 13.2153 7.83789 25.2737 7.83789 40.1485C7.83789 55.0233 19.8963 67.0817 34.7711 67.0817Z" stroke="#292C35" stroke-width="2" stroke-miterlimit="10"/>
<path d="M64.5004 14.9094C64.5004 14.5706 64.5004 14.2318 64.5004 13.893C63.9922 8.89599 59.7574 5 54.591 5C49.4246 5 45.1898 8.89599 44.6816 13.893C44.6816 14.2318 44.6816 14.5706 44.6816 14.9094C44.6816 16.688 45.1898 18.3819 46.0368 19.9064V20.0758L54.2522 33.5424C54.3369 33.7118 54.9298 33.7118 55.0992 33.2883L63.23 19.9064C64.0769 18.2972 64.5004 16.7727 64.5004 14.9094ZM54.591 19.9064C51.7961 19.9064 49.4246 17.6196 49.4246 14.74C49.4246 11.8603 51.7114 9.57356 54.591 9.57356C57.4707 9.57356 59.7574 11.8603 59.7574 14.74C59.7574 17.6196 57.4707 19.9064 54.591 19.9064Z" fill="#EC342E" stroke="#EC342E" stroke-width="2" stroke-miterlimit="10"/>
</svg>
