<svg width="24" height="25" viewBox="0 0 24 25" fill="none" xmlns="http://www.w3.org/2000/svg">
<mask id="mask0_299_7974" style="mask-type:alpha" maskUnits="userSpaceOnUse" x="0" y="0" width="24" height="25">
<rect y="0.904297" width="24" height="24" fill="#D9D9D9"/>
</mask>
<g mask="url(#mask0_299_7974)">
<path d="M18.9622 20.9043L12.7355 14.7023C12.2413 15.1141 11.673 15.4353 11.0305 15.6659C10.3881 15.8965 9.72917 16.0119 9.05378 16.0119C7.35707 16.0119 5.92393 15.4271 4.75436 14.2575C3.58479 13.0879 3 11.6548 3 9.95808C3 8.27784 3.58479 6.84866 4.75436 5.67052C5.92393 4.49304 7.35707 3.9043 9.05378 3.9043C10.734 3.9043 12.1589 4.48908 13.3285 5.65866C14.4981 6.82823 15.0828 8.26137 15.0828 9.95808C15.0828 10.6664 14.9675 11.3418 14.7369 11.9842C14.5063 12.6267 14.1933 13.1868 13.798 13.6645L20 19.8665L18.9622 20.9043ZM9.05378 14.5293C10.3222 14.5293 11.3972 14.0845 12.2788 13.195C13.1598 12.3055 13.6003 11.2265 13.6003 9.95808C13.6003 8.68966 13.1598 7.61069 12.2788 6.72116C11.3972 5.83162 10.3222 5.38685 9.05378 5.38685C7.76889 5.38685 6.68597 5.83162 5.805 6.72116C4.92337 7.61069 4.48256 8.68966 4.48256 9.95808C4.48256 11.2265 4.92337 12.3055 5.805 13.195C6.68597 14.0845 7.76889 14.5293 9.05378 14.5293Z" fill="#1C1B1F"/>
</g>
</svg>
