<svg width="97" height="99" viewBox="0 0 97 99" fill="none" xmlns="http://www.w3.org/2000/svg">
<path d="M81.7593 38.2896H81.7331L78.7561 21.1756C78.034 17.0182 74.4994 14 70.3531 14H28.5495C24.4026 14 20.8686 17.0175 20.1465 21.1756L17.1695 38.2896H17.1529C13.7363 38.2896 10.957 41.1194 10.957 44.5981V63.986C10.9787 66.028 12.028 67.9453 14.0572 69.6996V78.6631C14.0572 81.606 16.4085 84 19.2988 84H28.9016C31.8027 84 34.1623 81.606 34.1623 78.6631V76.8933C43.8002 78.3735 54.6578 78.4436 64.7499 76.8933V78.6631C64.7499 81.606 67.1011 84 69.9914 84H79.593C82.4941 84 84.8549 81.606 84.8549 78.6631V69.6989C86.8834 67.9459 87.9322 66.0273 87.957 63.9678V44.5975C87.9564 41.1188 85.1758 38.2896 81.7593 38.2896ZM23.3041 21.7445C23.7551 19.1492 25.9609 17.2663 28.5488 17.2663H70.3531C72.9411 17.2663 75.1469 19.1492 75.5979 21.7445L78.4754 38.289H76.0929C75.0123 33.7445 71.058 30.4717 66.3535 30.4717C61.6491 30.4717 57.6948 33.7445 56.6142 38.289H20.4266L23.3041 21.7445ZM72.7261 38.2896H59.981C60.9557 35.6092 63.4326 33.7386 66.3535 33.7386C69.2744 33.7386 71.7507 35.6092 72.7261 38.2896ZM30.9537 78.6631C30.9537 79.8043 30.0326 80.7337 28.9016 80.7337H19.2988C18.1774 80.7337 17.2652 79.8049 17.2652 78.6631V71.889C21.2354 74.0699 26.5363 75.528 30.9537 76.3678V78.6631ZM16.6273 67.6238L16.626 67.6231C15.511 66.7619 14.1803 65.4272 14.165 63.9684V44.5981C14.165 42.9211 15.5046 41.5565 17.1523 41.5565H81.7593C83.4069 41.5565 84.7484 42.9211 84.7484 44.5981V63.949C84.6202 74.9442 32.2933 79.6679 16.6273 67.6238ZM81.6464 78.6631C81.6464 79.8043 80.7252 80.7337 79.5923 80.7337H69.9908C68.8694 80.7337 67.9572 79.8049 67.9572 78.6631V76.3672C72.3733 75.5235 77.6736 74.068 81.6457 71.8896L81.6464 78.6631Z" fill="black"/>
<path d="M59.8867 50H39.0261C37.3342 50 35.957 51.3749 35.957 53.0654V60.5019C35.9646 61.2297 36.2541 62.3103 37.5896 63.3197C42.3581 66.917 56.6467 66.8704 61.3257 63.3179C62.6549 62.3122 62.9463 61.2335 62.957 60.4837V53.0654C62.9577 51.3749 61.5799 50 59.8867 50ZM39.5017 60.7905C39.2664 60.6116 39.1611 60.4767 39.1358 60.4767C39.1327 60.4767 39.1295 60.4792 39.1295 60.4837L39.0254 53.1688H59.7839L59.7934 60.3999C58.8282 62.8598 43.9472 64.1263 39.5017 60.7905Z" fill="black"/>
<path d="M73.958 66C78.3685 66 81.957 62.4109 81.957 58.0003C81.957 53.5892 78.3685 50 73.958 50C69.5462 50 65.957 53.5892 65.957 58.0003C65.9577 62.4115 69.5462 66 73.958 66ZM73.958 53.1684C76.6218 53.1684 78.7893 55.3359 78.7893 58.0003C78.7893 60.6648 76.6218 62.8322 73.958 62.8322C71.2929 62.8322 69.1254 60.6648 69.1254 58.0003C69.1254 55.3359 71.2929 53.1684 73.958 53.1684Z" fill="black"/>
<path d="M23.9561 50C19.5456 50 15.957 53.5891 15.957 58.0003C15.957 62.4115 19.5462 66 23.9561 66C28.3679 66 31.957 62.4108 31.957 58.0003C31.9564 53.5885 28.3679 50 23.9561 50ZM23.9561 62.8316C21.2923 62.8316 19.1248 60.6642 19.1248 57.9997C19.1248 55.3352 21.2923 53.1677 23.9561 53.1677C26.6212 53.1677 28.7887 55.3352 28.7887 57.9997C28.7887 60.6642 26.6212 62.8316 23.9561 62.8316Z" fill="black"/>
<path d="M66.9567 31C70.8167 31 73.957 27.8607 73.957 24.0009C73.957 20.1405 70.8167 17 66.9567 17C63.0967 17 59.957 20.1405 59.957 24.0009C59.957 27.8607 63.0967 31 66.9567 31ZM66.9567 20.0626C69.1282 20.0626 70.8941 21.8287 70.8941 24.0003C70.8941 26.1701 69.1282 27.9368 66.9567 27.9368C64.7859 27.9368 63.02 26.1707 63.02 24.0003C63.02 21.8287 64.7859 20.0626 66.9567 20.0626Z" fill="black"/>
</svg>
