<svg width="97" height="99" viewBox="0 0 97 99" fill="none" xmlns="http://www.w3.org/2000/svg">
<path d="M88.9362 20H39.0855C38.1068 20 37.3147 20.8004 37.3147 21.7876V29.0164H19.8456C16.4378 29.0164 13.4475 31.3386 12.6181 34.5187L5.82085 53.6049C5.64976 54.0875 5.72231 68.513 5.72231 69.0255C5.72231 70.0128 6.51438 70.8132 7.49306 70.8132H11.1445C11.9676 74.908 15.5591 78 19.8547 78C24.1412 78 27.7264 74.908 28.5481 70.8132C40.9168 70.8132 23.8328 70.8132 64.9255 70.8132C65.7485 74.908 69.3401 78 73.6357 78C77.9222 78 81.5074 74.908 82.3291 70.8132H88.9362C89.9149 70.8132 90.707 70.0128 90.707 69.0255C90.707 52.2387 90.707 40.6386 90.707 21.7876C90.707 20.8004 89.9149 20 88.9362 20ZM40.8562 23.5746H87.1662V54.9191H40.8562C40.8562 37.1671 40.8562 41.2961 40.8562 23.5746ZM15.9963 35.5813C16.4582 33.8207 18.0417 32.591 19.8456 32.591H37.3119V52.4221H10.0052L15.9963 35.5813ZM9.26316 55.9967H37.3147C37.3147 62.595 37.3147 60.6602 37.3147 67.2372H28.5474C27.7243 63.1522 24.1398 60.0681 19.854 60.0681C15.5598 60.0681 11.9682 63.153 11.1437 67.2372H9.26316V55.9967ZM19.854 74.424C16.906 74.424 14.5058 72.0016 14.5058 69.0248C14.5058 66.0573 16.906 63.6434 19.854 63.6434C22.7936 63.6434 25.1847 66.0573 25.1847 69.0248C25.1854 72.0023 22.7936 74.424 19.854 74.424ZM73.6357 74.424C70.6877 74.424 68.2875 72.0016 68.2875 69.0248C68.2875 66.0573 70.6877 63.6434 73.6357 63.6434C76.5753 63.6434 78.9664 66.0573 78.9664 69.0248C78.9664 72.0023 76.5753 74.424 73.6357 74.424ZM87.1662 67.2372H82.3291C81.506 63.1522 77.9215 60.0681 73.6357 60.0681C69.3415 60.0681 65.75 63.153 64.9255 67.2372H40.8562V58.4944H87.1662V67.2372Z" fill="black"/>
</svg>
