<svg width="98" height="99" viewBox="0 0 98 99" fill="none" xmlns="http://www.w3.org/2000/svg">
<path d="M81.9689 24.2098L66.222 17.127C65.8289 16.9496 65.3415 16.9659 64.9818 17.127L49.8538 23.9305L34.7273 17.127C34.3348 16.9491 33.8211 16.9771 33.4866 17.127L17.7382 24.2098C17.1989 24.4524 16.8535 24.9851 16.8535 25.5718V81.5051C16.8535 82.0133 17.1137 82.4863 17.5426 82.762C17.9788 83.0403 18.5222 83.0735 18.9789 82.867L34.1069 76.0635L49.2334 82.867C49.3545 82.9216 49.6536 82.9986 49.8507 82.9991C49.8538 83.0001 49.8527 82.9996 49.8548 82.9996C50.0754 82.9506 50.1673 83.0042 50.4736 82.8665L65.6016 76.063L80.7281 82.8665C81.1843 83.073 81.7282 83.0398 82.1644 82.7615C82.5934 82.4858 82.8535 82.0123 82.8535 81.5046V25.5718C82.8535 24.9851 82.5082 24.4519 81.9689 24.2098ZM79.8434 51.2206L67.1067 45.492V20.8076L79.8434 26.5356V51.2206ZM35.612 48.774L48.3482 54.5025V79.1865L35.612 73.4584V48.774ZM51.3588 54.503L64.0966 48.7745V73.4595L51.3588 79.1875V54.503ZM64.0966 45.4915L51.3588 51.2201V26.5356L64.0966 20.807V45.4915ZM48.3482 51.2206L35.612 45.492V20.8076L48.3482 26.5356V51.2206ZM32.6014 20.8076V45.4915L19.8636 51.2201V26.5351L32.6014 20.8076ZM19.8636 54.503L32.6014 48.7745V73.4595L19.8636 79.187V54.503ZM67.1067 73.4584V48.774L79.8434 54.5025V79.1865L67.1067 73.4584Z" fill="black"/>
</svg>
