<svg width="98" height="100" viewBox="0 0 98 100" fill="none" xmlns="http://www.w3.org/2000/svg">
<path d="M75.094 47.4041L72.022 32.9644C71.2238 29.2192 67.8643 26.5 64.0322 26.5H32.8837C29.0515 26.5 25.6908 29.2186 24.8945 32.9644L21.8224 47.4041C15.5454 47.4041 11.457 52.2907 11.457 57.678V69.1514C11.457 71.4002 12.9118 73.2851 14.8962 73.9214V81.7731C14.8962 83.8283 16.5214 85.5 18.5194 85.5H23.2503C25.2482 85.5 26.8734 83.8283 26.8734 81.7731V74.1698H70.0406V81.7731C70.0406 83.8283 71.6659 85.5 73.6638 85.5H78.3947C80.3926 85.5 82.0178 83.8283 82.0178 81.7731V73.9214C84.0028 73.2851 85.457 71.4002 85.457 69.1514V57.6787C85.4583 52.345 81.4293 47.4041 75.094 47.4041ZM27.907 33.643C28.3962 31.3419 30.4892 29.672 32.8837 29.672H64.0322C66.4267 29.672 68.5203 31.3425 69.0095 33.643L71.9368 47.4048H24.9791L27.907 33.643ZM23.791 81.7737C23.791 82.0796 23.5488 82.3287 23.2515 82.3287H18.5206C18.2232 82.3287 17.9811 82.0796 17.9811 81.7737V74.1704H23.7916L23.791 81.7737ZM78.3959 82.3287H73.665C73.3677 82.3287 73.1255 82.0796 73.1255 81.7737V74.1704H78.936V81.7737C78.9354 82.0796 78.6933 82.3287 78.3959 82.3287ZM82.3752 69.1514C82.3752 70.1698 81.5697 70.9985 80.5796 70.9985H16.3369C15.3462 70.9985 14.5407 70.1698 14.5407 69.1514V57.678C14.5407 53.7619 17.6384 50.5755 21.4461 50.5755H75.4711C79.2781 50.5755 82.3752 53.762 82.3752 57.6787V69.1514Z" fill="black"/>
<path d="M73.957 53.5C70.3728 53.5 67.457 56.4158 67.457 60C67.457 63.5842 70.3728 66.5 73.957 66.5C77.5413 66.5 80.457 63.5842 80.457 60C80.457 56.4158 77.5413 53.5 73.957 53.5ZM73.957 63.3953C72.085 63.3953 70.5617 61.872 70.5617 60C70.5617 58.128 72.085 56.6047 73.957 56.6047C75.8291 56.6047 77.3524 58.128 77.3524 60C77.3524 61.8714 75.8291 63.3953 73.957 63.3953Z" fill="black"/>
<path d="M21.957 53.5C18.3728 53.5 15.457 56.4158 15.457 60C15.457 63.5842 18.3728 66.5 21.957 66.5C25.5413 66.5 28.457 63.5842 28.457 60C28.457 56.4158 25.5413 53.5 21.957 53.5ZM21.957 63.3953C20.085 63.3953 18.5617 61.872 18.5617 60C18.5617 58.128 20.085 56.6047 21.957 56.6047C23.8291 56.6047 25.3524 58.128 25.3524 60C25.3524 61.8714 23.8291 63.3953 21.957 63.3953Z" fill="black"/>
<path d="M60.8917 62.5H37.0224C36.1579 62.5 35.457 63.1716 35.457 64C35.457 64.8285 36.1579 65.5 37.0224 65.5H60.8917C61.7562 65.5 62.457 64.8285 62.457 64C62.457 63.1716 61.7556 62.5 60.8917 62.5Z" fill="black"/>
<path d="M60.8917 55.5H37.0224C36.1579 55.5 35.457 56.1716 35.457 57C35.457 57.8284 36.1579 58.5 37.0224 58.5H60.8917C61.7562 58.5 62.457 57.8284 62.457 57C62.457 56.1716 61.7556 55.5 60.8917 55.5Z" fill="black"/>
<path d="M51.7826 35.5H46.1314C45.2067 35.5 44.457 36.1716 44.457 37C44.457 37.8285 45.2067 38.5 46.1314 38.5H51.7826C52.7074 38.5 53.457 37.8285 53.457 37C53.457 36.1716 52.7074 35.5 51.7826 35.5Z" fill="black"/>
<mask id="path-7-inside-1_525_9569" fill="white">
<rect x="38.457" y="21.5" width="20" height="8" rx="2"/>
</mask>
<rect x="38.457" y="21.5" width="20" height="8" rx="2" stroke="black" stroke-width="5" mask="url(#path-7-inside-1_525_9569)"/>
<path d="M39.957 18.7489C39.957 15.2977 42.7548 12.5 46.2059 12.5H50.7081C54.1593 12.5 56.957 15.2977 56.957 18.7489V22.5H39.957V18.7489Z" stroke="black" stroke-width="2"/>
</svg>
