<svg width="98" height="100" viewBox="0 0 98 100" fill="none" xmlns="http://www.w3.org/2000/svg">
<path d="M59.8535 33C59.8535 26.6587 54.6954 21.5 48.3542 21.5C42.013 21.5 36.8535 26.6587 36.8535 33C36.8535 39.3413 42.013 44.5 48.3542 44.5C54.6954 44.5 59.8535 39.3413 59.8535 33ZM39.6388 33C39.6388 28.1945 43.5484 24.2849 48.3542 24.2849C53.1587 24.2849 57.0682 28.1945 57.0682 33C57.0682 37.8055 53.1587 41.7151 48.3542 41.7151C43.5484 41.7151 39.6388 37.8055 39.6388 33Z" fill="black"/>
<path d="M60.7627 56.2107C65.6039 48.3362 70.1598 39.4211 70.1598 33.7441C70.1598 21.4781 60.3769 11.5 48.353 11.5C36.3292 11.5 26.5463 21.4786 26.5463 33.7441C26.5463 39.4211 31.1022 48.3362 35.9434 56.2107C26.7126 58.9824 20.8535 64.6511 20.8535 70.9782C20.8535 80.2429 32.9333 87.5 48.3535 87.5C63.7737 87.5 75.8535 80.2429 75.8535 70.9782C75.8526 64.6511 69.9935 58.9824 60.7627 56.2107ZM48.3526 14.3356C58.8439 14.3356 67.3795 23.0424 67.3795 33.7441C67.3795 43.1335 52.5512 63.8168 48.3526 69.4831C44.1539 63.8173 29.3256 43.1374 29.3256 33.7441C29.3256 23.0424 37.8612 14.3356 48.3526 14.3356ZM48.3526 84.6639C34.9535 84.6639 23.6324 78.3963 23.6324 70.9782C23.6324 65.7847 29.0503 61.0383 37.5101 58.7151C42.2693 66.1685 46.8613 72.1741 47.2584 72.6909C47.5219 73.0341 47.9251 73.2342 48.3526 73.2342C48.78 73.2342 49.1833 73.0341 49.4468 72.6909C49.8439 72.1741 54.4358 66.1685 59.195 58.7151C67.6548 61.0383 73.0728 65.7847 73.0728 70.9782C73.0728 78.3963 61.7517 84.6639 48.3526 84.6639Z" fill="black"/>
</svg>
