<svg width="181" height="26" viewBox="0 0 181 26" fill="none" xmlns="http://www.w3.org/2000/svg">
<path d="M13.4928 10.0968H17.9163C17.9163 10.0968 4.43913 17.5514 17.97 23.5027C17.9659 23.5027 -0.596684 19.5683 13.4928 10.0968Z" fill="#E7290F"/>
<path d="M15.0154 4.7668C15.0154 4.7668 18.8305 6.62631 15.4747 9.11532H19.7491C19.7491 9.11532 21.4746 5.38802 15.0154 4.7668Z" fill="#E7290F"/>
<path d="M13.1079 0C6.05695 0 0.338379 5.81873 0.338379 13C0.338379 20.1771 6.05695 26 13.1079 26C20.163 26 25.8775 20.1771 25.8775 13C25.8775 5.81873 20.1589 0 13.1079 0ZM13.1079 24.2233C7.02108 24.2233 2.08457 19.1956 2.08457 13C2.08457 6.80025 7.02108 1.77668 13.1079 1.77668C19.1989 1.77668 24.1354 6.80025 24.1354 13C24.1354 19.1956 19.1989 24.2233 13.1079 24.2233Z" fill="#E7290F"/>
<path d="M33.3088 5.16853H36.4412V7.96401H33.3088V5.16853ZM33.3088 9.81523H36.4412V21.1338H33.3088V9.81523Z" fill="#3B454E"/>
<path d="M39.375 21.1338V6.0548H43.4136C45.2963 9.43836 48.7722 15.547 49.4632 17.187H49.5046C49.3349 15.6133 49.3391 12.9959 49.3391 10.5193V6.05066H52.2894V21.1297H48.4618C46.8439 18.1851 42.9915 11.1695 42.2426 9.42594H42.2012C42.3088 10.7429 42.346 13.8407 42.346 16.5409V21.1255H39.375V21.1338Z" fill="#3B454E"/>
<path d="M64.1857 18.2099C64.1857 19.2867 64.2726 20.8605 64.3388 21.1338H61.3471C61.2602 20.9102 61.194 20.3138 61.1899 20.028C60.7802 20.6658 60.0106 21.3947 58.012 21.3947C55.2851 21.3947 54.1348 19.6015 54.1348 17.8455C54.1348 15.2654 56.2037 14.0768 59.5182 14.0768C60.0685 14.0768 60.7513 14.0768 61.1319 14.0768V13.3852C61.1319 12.5817 60.8423 11.7907 59.3899 11.7907C58.0699 11.7907 57.7802 12.3539 57.6354 13.1739H54.6561C54.8258 11.1612 56.0672 9.53361 59.5058 9.55432C62.5347 9.57503 64.1857 10.7595 64.1857 13.4514V18.2099ZM61.1319 15.9818C60.8713 15.9818 60.2713 15.9818 59.8575 15.9818C57.9706 15.9818 57.2713 16.5575 57.2713 17.6508C57.2713 18.4708 57.772 19.1583 58.8975 19.1583C60.8878 19.1583 61.1319 17.7751 61.1319 16.28V15.9818Z" fill="#3B454E"/>
<path d="M68.6629 9.81523C69.7388 13.6502 70.6367 17.0006 70.8601 18.3632H70.8808C71.1994 16.4954 72.3084 13.0828 73.2891 9.81523H76.409L72.416 21.1338H69.1222L65.2905 9.81523H68.6629Z" fill="#3B454E"/>
<path d="M77.7456 5.16853H80.878V7.96401H77.7456V5.16853ZM77.7456 9.81523H80.878V21.1338H77.7456V9.81523Z" fill="#3B454E"/>
<path d="M101.551 15.4766C101.551 12.9047 101.592 10.0182 101.659 8.31602H101.555C100.848 11.3931 99.3414 16.4167 97.8972 21.1338H95.1248C94.0283 17.0089 92.4683 11.2854 91.8063 8.27461H91.7069C91.8352 10.043 91.8973 13.145 91.8973 15.7334V21.1338H88.9304V6.05479H93.78C94.9552 9.99331 96.271 14.9341 96.7221 17.1829H96.7469C97.1152 15.1991 98.7703 9.91876 100.028 6.05479H104.7V21.1338H101.551V15.4766Z" fill="#3B454E"/>
<path d="M116.642 18.2099C116.642 19.2867 116.729 20.8605 116.795 21.1338H113.803C113.717 20.9102 113.65 20.3138 113.646 20.028C113.237 20.6658 112.467 21.3947 110.468 21.3947C107.741 21.3947 106.591 19.6015 106.591 17.8455C106.591 15.2654 108.66 14.0768 111.974 14.0768C112.525 14.0768 113.208 14.0768 113.588 14.0768V13.3852C113.588 12.5817 113.299 11.7907 111.846 11.7907C110.526 11.7907 110.237 12.3539 110.092 13.1739H107.112C107.282 11.1612 108.523 9.53361 111.962 9.55432C114.991 9.57503 116.642 10.7595 116.642 13.4514V18.2099ZM113.588 15.9818C113.328 15.9818 112.728 15.9818 112.314 15.9818C110.427 15.9818 109.728 16.5575 109.728 17.6508C109.728 18.4708 110.228 19.1583 111.354 19.1583C113.344 19.1583 113.588 17.7751 113.588 16.28V15.9818Z" fill="#3B454E"/>
<path d="M122.369 20.1316V25.4699H119.257V12.5444C119.257 11.6292 119.257 10.7222 119.236 9.81522H122.269C122.315 10.1134 122.369 10.8092 122.369 11.2233C122.853 10.3909 123.863 9.55017 125.658 9.55017C128.199 9.55017 130.165 11.6747 130.165 15.1867C130.165 19.179 127.971 21.3947 125.232 21.3947C123.631 21.3947 122.799 20.7942 122.369 20.1316ZM126.982 15.3109C126.982 13.2361 126.142 12.064 124.653 12.064C122.874 12.064 122.245 13.2071 122.245 15.489C122.245 17.6508 122.828 18.9057 124.52 18.9057C126.18 18.9057 126.982 17.6136 126.982 15.3109Z" fill="#3B454E"/>
<path d="M134.497 17.7295C134.733 18.6324 135.469 19.1376 136.636 19.1376C137.791 19.1376 138.213 18.7235 138.213 18.036C138.213 17.3112 137.729 17.0255 136.106 16.6279C132.424 15.7168 131.82 14.5779 131.82 12.9793C131.82 11.3144 132.995 9.55017 136.404 9.55017C139.835 9.55017 140.997 11.4263 141.093 12.9586H138.113C138.014 12.5403 137.733 11.7493 136.264 11.7493C135.229 11.7493 134.894 12.209 134.894 12.7184C134.894 13.2816 135.246 13.555 137.083 13.9815C140.857 14.8595 141.391 16.1558 141.391 17.8124C141.391 19.6884 139.967 21.3947 136.516 21.3947C133.082 21.3947 131.666 19.7381 131.418 17.7295H134.497Z" fill="#3B454E"/>
<path d="M151.524 17.6508L150.349 21.1338H147.146L152.261 6.05479H156.353L161.691 21.1338H158.265L157.028 17.6508H151.524ZM156.328 14.9796C155.257 11.799 154.578 9.76553 154.214 8.41128H154.193C153.821 9.89806 153.068 12.2628 152.211 14.9796H156.328Z" fill="#3B454E"/>
<path d="M163.404 6.05479H169.636C172.839 6.05479 175.011 7.85632 175.011 10.7222C175.011 13.9981 172.532 15.5014 169.561 15.5014H166.665V21.1338H163.404V6.05479ZM166.665 12.9089H169.152C170.658 12.9089 171.726 12.3291 171.726 10.7885C171.726 9.23128 170.6 8.65148 169.222 8.65148H166.669V12.9089H166.665Z" fill="#3B454E"/>
<path d="M180.494 6.05479V21.1338H177.237V6.05479H180.494Z" fill="#3B454E"/>
</svg>
